<?xml version="1.0" encoding="utf-8"?>
<!-- Generator: Adobe Illustrator 19.1.0, SVG Export Plug-In . SVG Version: 6.00 Build 0)  -->
<svg version="1.1" id="Layer_1" xmlns="http://www.w3.org/2000/svg" xmlns:xlink="http://www.w3.org/1999/xlink" x="0px" y="0px"
	 viewBox="0 0 97.5 31.8" style="enable-background:new 0 0 97.5 31.8;" xml:space="preserve">
<style type="text/css">
	.st0{fill:#FFFFFF;}
	.st1{fill:none;stroke:#FFFFFF;stroke-width:1.5;stroke-miterlimit:10;}
</style>
<g>
	<path class="st0" d="M14.8,19.2L14.8,19.2l-4.3-6.4v9.7H8.2V9h2.5l4.1,6.4L19,9h2.5v13.6h-2.4v-9.7L14.8,19.2z"/>
	<path class="st0" d="M41.9,22.5h-2.5L38,19.3h-6.4l-1.4,3.3h-2.4l6-13.7h2.2L41.9,22.5z M34.7,11.7l-2.3,5.4h4.7L34.7,11.7z"/>
	<path class="st0" d="M52,22.5h-2.4V11.2h-4.3V9h11v2.2H52V22.5z"/>
	<path class="st0" d="M68.5,22.5h-2.4V11.2h-4.3V9h11v2.2h-4.3V22.5z"/>
	<path class="st0" d="M89.2,11.1h-7.7v3.5h6.8v2.1h-6.8v3.6h7.8v2.1H79.2V9h10.1V11.1z"/>
</g>
<rect x="0.8" y="0.8" class="st1" width="96" height="30.3"/>
</svg>
